<svg width="940" height="400" fill="none" xmlns="http://www.w3.org/2000/svg"><defs><path id="a" transform="translate(-30 -28.5)" d="M1 39V.6H4v17.7h6.2V.6h3.1V39h-3.1V21.1H4V39H1zm26.5-9.9h3a53.1 53.1 0 0 1 .1 4.4c0 2-.6 3.6-1.5 4.5-.8.9-2.3 1.3-4.4 1.3-2.2 0-3.8-.4-4.7-1.3-1-1-1.5-2.4-1.6-4.5l-.1-5.7v-6.3l.1-5.7c.1-2.1.7-3.6 1.6-4.5 1-1 2.5-1.4 4.6-1.4 2 0 3.6.4 4.5 1.3 1 .9 1.4 2.4 1.5 4.5a99.2 99.2 0 0 1 0 9.6h-9v8.5c0 1.1.3 2 .7 2.4.5.4 1.2.6 2.3.6 1 0 1.7-.2 2.1-.6.5-.5.7-1.3.8-2.4V29zm-2.9-16.7c-1 0-1.8.2-2.3.7-.4.5-.7 1.2-.7 2.3v7.4h6v-4.5l-.1-3c0-1-.3-1.7-.8-2.2-.4-.5-1.1-.7-2-.7zM37.4 39l-4-28.8h3.3l1.5 14 1.3 12.3h.9l1.3-12.2 1.5-14.1h3.3l-4.3 32.7c-.3 2-1 3.6-1.8 4.5-1 .9-2.5 1.3-4.6 1.3-1 0-2 0-2.9-.2V46l1.3.1h1.5c1.2 0 2-.2 2.4-.6.4-.4.7-1.2.9-2.4l.5-4.1h-2.1zm14.1-7.6-.5-21V.6h3.4v9.8l-.5 21h-2.4zM50 39v-4.3h5.4V39H50z"/><path id="e" transform="translate(-66 -28.5)" d="M.6 39V.6h3.2V39H.6zM8.5 5V.5h5.4v4l-2.3 5.3h-2l1.8-5H8.5zm8.6 34V10.2h3.2v2.5h.6c.5-1 1-1.6 1.6-2.1.7-.5 1.5-.7 2.7-.7 1.1 0 2 .2 2.7.7a4 4 0 0 1 1.5 2.3h.6c.5-1 1-1.7 1.8-2.2.7-.6 1.6-.8 2.7-.8 1.5 0 2.6.4 3.4 1.3.7.9 1 2.3 1.1 4.4V39h-3l-.1-23.7c0-1-.3-1.8-.7-2.2-.3-.5-1-.7-1.8-.7-1.8 0-3 1-3.7 3V39h-3.2V15.3c0-1-.2-1.8-.6-2.2-.4-.5-1-.7-1.8-.7-2 0-3.2 1-3.8 2.9V39H17zm37.1 0V.6h3.2V39h-3.2zm13 .3c-1.5 0-2.7-.4-3.5-1.3-.8-.9-1.1-2.3-1.1-4.4V10.2h3.2v23.7c0 1 .2 1.8.6 2.3.3.4 1 .6 1.8.6.9 0 1.6-.2 2.3-.7.7-.5 1.2-1.3 1.5-2.2V10.2h3.2V39H72v-2.5h-.6c-1 1.9-2.3 2.8-4.2 2.8zM79.4 4.4V.6h5v3.8h-5zm-4.8 44.2V46H76l1.4.1c1 0 1.8-.2 2.3-.7.4-.4.6-1.2.6-2.3v-33h3.2V43c0 2-.5 3.6-1.4 4.4-1 1-2.5 1.4-4.6 1.4-1 0-2 0-2.9-.2zM87.7 4.4V.6h5v3.8h-5zM83 48.6V46h1.3l1.5.1c1 0 1.8-.2 2.2-.7.4-.4.7-1.2.7-2.3v-33h3.1V43c0 2-.4 3.6-1.4 4.4-1 1-2.4 1.4-4.6 1.4-1 0-2 0-2.8-.2zM96 4.4V.6h5v3.8h-5zm-4.7 44.2V46h1.3l1.5.1c1 0 1.8-.2 2.2-.7.5-.4.7-1.2.7-2.3v-33h3.2V43c0 2-.5 3.6-1.5 4.4-.9 1-2.4 1.4-4.5 1.4-1 0-2 0-2.9-.2zm14-9.6V.6h3.2v12.1h.7c.4-1 1-1.6 1.6-2.1.6-.5 1.5-.7 2.6-.7 1.5 0 2.6.4 3.4 1.3.8.9 1.1 2.3 1.1 4.4V39h-3.1V15.3c0-1-.3-1.8-.7-2.2-.3-.5-1-.7-1.8-.7-2 0-3.2 1-3.8 2.9V39h-3.2zm17 0v-4.3h5.4V39h-5.4z"/><g id="h"><rect width="718" height="400" rx="15" fill="#0073C6"/><path d="M48.8 55h1.7V41.9h-1.7V55zm5.2-8.6c1.4-.8 2.1-2 2.1-3.6 0-1.1-.5-1.8-1.2-1.8s-1.1.4-1.1 1.1c0 .7.5 1 1 1h.2c0 1.2-.5 1.9-1.5 2.5l.5.8zm4.9 8.6h1.6v-7c1-1 1.7-1.5 2.5-1.5 1.2 0 1.8.7 1.8 2.6V55h1.6v-7c1-1 1.7-1.5 2.5-1.5 1.2 0 1.8.7 1.8 2.6V55h1.6v-6.2c0-2.4-1-3.8-3-3.8-1.1 0-2.1.8-3.2 1.9-.4-1.2-1.2-1.9-2.6-1.9-1.2 0-2.2.8-3 1.7h-.1l-.2-1.4H59V55zm20.6 0h1.6v-6.2c.7-1.7 1.7-2.3 2.5-2.3.4 0 .6 0 1 .2l.3-1.5-1-.2c-1.2 0-2.2.8-2.8 2H81l-.1-1.7h-1.4V55zm6-4.8c0 3.1 2 5 4.7 5 1.3 0 2.3-.4 3.2-1l-.6-1c-.7.4-1.5.7-2.4.7-1.9 0-3.1-1.3-3.3-3.4h6.6v-.9c0-2.8-1.3-4.6-3.8-4.6-2.2 0-4.4 2-4.4 5.2zm1.6-.8c.2-2 1.5-3 2.8-3 1.5 0 2.4 1 2.4 3h-5.2zm8.3.8c0 3.2 2 5 4.6 5 1.2 0 2.3-.4 3.2-1.2l-.8-1.1c-.6.5-1.3 1-2.3 1-1.7 0-3-1.5-3-3.7 0-2.3 1.3-3.8 3-3.8.9 0 1.5.4 2 .9l.9-1.1A4 4 0 0 0 100 45c-2.5 0-4.7 1.9-4.7 5.2zm8.7 0c0 3.1 2 5 4.7 5 1.3 0 2.4-.4 3.2-1l-.6-1c-.7.4-1.5.7-2.4.7-1.9 0-3.1-1.3-3.2-3.4h6.5v-.9c0-2.8-1.3-4.6-3.8-4.6-2.2 0-4.4 2-4.4 5.2zm1.6-.8c.2-2 1.5-3 2.8-3 1.6 0 2.4 1 2.4 3h-5.2zm9 5.6h1.7v-7c1-1 1.7-1.5 2.7-1.5 1.3 0 1.8.7 1.8 2.6V55h1.7v-6.2c0-2.4-1-3.8-3-3.8-1.3 0-2.3.8-3.3 1.7l-.2-1.4h-1.3V55zm11.3-3c0 2 .7 3.2 2.8 3.2a6 6 0 0 0 1.8-.3l-.3-1.3-1.2.3c-1 0-1.4-.7-1.4-1.9v-5.4h2.6v-1.3h-2.7v-2.7h-1.3l-.2 2.7h-1.5v1.3h1.4V52zm6.5 1c0 1.5.5 2.2 1.7 2.2l1-.1-.3-1.3h-.3c-.3 0-.5-.1-.5-.6V40.8h-1.6V53zm4.4 4.7-.3 1.3 1.1.2c2 0 3-1.5 3.7-3.4l3.6-10.5h-1.6l-1.7 5.4-.8 2.7h-.1l-1-2.7-2-5.4h-1.6L140 55l-.3.7c-.4 1.2-1 2.1-2.2 2.1l-.7-.1zm15.6-2.7h2l1.3-5.2.6-2.8h.1l.7 2.8 1.4 5.2h2l2.6-9.7h-1.6l-1.4 5.6-.6 2.7-.8-2.7-1.5-5.6h-1.6l-1.5 5.6-.6 2.7h-.1l-.6-2.7-1.4-5.6h-1.7l2.7 9.7zm12-4.8c0 3.2 2.1 5 4.5 5s4.5-1.8 4.5-5c0-3.3-2.1-5.2-4.5-5.2s-4.5 1.9-4.5 5.2zm1.7 0c0-2.3 1.1-3.8 2.8-3.8 1.7 0 2.8 1.5 2.8 3.8 0 2.2-1.1 3.7-2.8 3.7-1.7 0-2.8-1.5-2.8-3.7zm9.9 4.8h1.6v-6.2c.7-1.7 1.6-2.3 2.5-2.3.4 0 .6 0 .9.2l.3-1.5-1-.2c-1.1 0-2.1.8-2.8 2l-.2-1.7h-1.3V55zm6.9 0h1.6v-2.6l1.8-2 2.9 4.6h1.8l-3.7-5.8 3.2-4h-1.8l-4.1 5.2v-9.6H183V55zm10.7-11.7c.7 0 1.2-.5 1.2-1 0-.7-.5-1.1-1.2-1.1-.6 0-1.1.4-1.1 1s.5 1 1.1 1zM193 55h1.6v-9.7H193V55zm5 0h1.6v-7c1-1 1.6-1.5 2.6-1.5 1.3 0 1.9.7 1.9 2.6V55h1.6v-6.2c0-2.4-1-3.8-3-3.8-1.3 0-2.3.8-3.2 1.7l-.2-1.4h-1.4V55zm11.6 1.6c0-.5.3-1.1 1-1.6l1.2.2h1.7c1.3 0 2 .3 2 1.2 0 1-1.3 2-3.1 2s-2.8-.7-2.8-1.8zm-1.5.3c0 1.6 1.7 2.6 4 2.6 3 0 5-1.6 5-3.4 0-1.6-1.2-2.3-3.4-2.3h-2c-1.2 0-1.6-.4-1.6-1s.2-1 .6-1.2c.4.2 1 .3 1.4.3 2 0 3.6-1.3 3.6-3.4 0-.8-.3-1.5-.8-2h2v-1.2h-3.4c-.3-.2-.8-.3-1.4-.3-2 0-3.6 1.4-3.6 3.5 0 1.2.6 2.1 1.2 2.6v.1c-.5.3-1 1-1 1.8s.4 1.3.8 1.6c-.8.7-1.4 1.4-1.4 2.3zm4-6c-1 0-2-1-2-2.4s.9-2.3 2-2.3c1.2 0 2.1.9 2.1 2.3s-1 2.3-2 2.3zm10.2-.7c0 3.2 2 5 4.5 5 2.3 0 4.5-1.8 4.5-5 0-3.3-2.2-5.2-4.5-5.2-2.4 0-4.5 1.9-4.5 5.2zm1.7 0c0-2.3 1.1-3.8 2.8-3.8 1.6 0 2.8 1.5 2.8 3.8 0 2.2-1.2 3.7-2.8 3.7-1.7 0-2.8-1.5-2.8-3.7zm9.8 4.8h1.7v-7c1-1 1.6-1.5 2.6-1.5 1.3 0 1.9.7 1.9 2.6V55h1.6v-6.2c0-2.4-1-3.8-3-3.8-1.3 0-2.3.8-3.2 1.7l-.2-1.4h-1.4V55zm10.6-8.2a1.2 1.2 0 1 0 2.4 0c0-.8-.5-1.3-1.2-1.3-.6 0-1.2.5-1.2 1.3zm0 7.2c0 .7.6 1.2 1.2 1.2.7 0 1.2-.5 1.2-1.2 0-.8-.5-1.3-1.2-1.3-.6 0-1.2.5-1.2 1.3zM303 254h8.1v-2.5H306V241h-3v13zm11.6-11.4c1 0 1.7-.6 1.7-1.5 0-1-.7-1.5-1.7-1.5s-1.7.6-1.7 1.5.7 1.5 1.7 1.5zm-1.5 11.4h3v-10h-3v10zm5.6 0h3v-6.7c.5-.6 1-1 1.7-1 .9 0 1.3.5 1.3 2v5.7h3v-6.2c0-2.4-1-4-3.2-4-1.3 0-2.3.7-3.2 1.5l-.2-1.2h-2.4v9.9zm10.8-5c0 3.3 2.2 5.2 5 5.2 1.2 0 2.6-.4 3.6-1l-1-1.9a4 4 0 0 1-2.1.7c-1.4 0-2.4-.7-2.6-2.2h6v-1.2c0-2.7-1.4-4.8-4.2-4.8-2.4 0-4.7 2-4.7 5.2zm2.9-1c.2-1.3 1-2 1.9-2 1.2 0 1.6.9 1.6 2h-3.5zm7.5 3.2c0 1.7 1.1 3 3 3 1 0 2-.5 2.8-1.2l.3 1h2.4v-5.7c0-3-1.4-4.5-4-4.5-1.5 0-3 .6-4.2 1.3l1 2c1-.6 1.9-1 2.7-1 1 0 1.5.6 1.6 1.5-4 .4-5.6 1.6-5.6 3.6zm2.8-.2c0-.7.7-1.3 2.8-1.6v1.7c-.6.5-1 .9-1.7.9s-1.1-.3-1.1-1zm8.2 3h3v-5.8c.5-1.3 1.4-1.8 2.2-1.8.4 0 .7 0 1 .2l.5-2.6-1.2-.2c-1 0-2 .7-2.8 2l-.3-1.7H351v9.9zm8.2 0h2.7v-4.8l-.3-4.4 1.1 3 2 5h1.2l2-5 1-3h.1l-.3 4.4v4.8h2.7v-13h-3.1l-2.1 5.8-.8 2.3-.9-2.3-2.1-5.8H359v13zm14.5-5c0 3.3 2.3 5.2 4.8 5.2s4.8-1.9 4.8-5.2c0-3.3-2.3-5.2-4.8-5.2s-4.8 2-4.8 5.2zm3 0c0-1.7.6-2.8 1.8-2.8 1.2 0 1.8 1.1 1.8 2.8 0 1.8-.6 2.9-1.8 2.9-1.2 0-1.8-1.1-1.8-2.9zm8.5 1.2c0 2.5 1 4 3.1 4 1.4 0 2.3-.6 3.1-1.6l.3 1.4h2.4v-10h-3v6.6c-.5.8-1 1.1-1.7 1.1-.9 0-1.2-.4-1.2-1.8V244h-3v6.1zm10.6 2.7c1 .8 2.5 1.3 3.8 1.3 2.7 0 4.1-1.4 4.1-3.2 0-1.8-1.4-2.5-2.7-3-1-.3-2-.6-2-1.2 0-.5.4-.8 1.2-.8.7 0 1.4.3 2 .9l1.4-1.8c-.8-.6-2-1.3-3.5-1.3-2.3 0-3.8 1.3-3.8 3.1 0 1.7 1.4 2.5 2.6 3 1 .4 2 .7 2 1.3 0 .5-.3.9-1.2.9-.8 0-1.7-.4-2.6-1l-1.3 1.8zm9.2-3.9c0 3.3 2.2 5.2 5 5.2 1.2 0 2.5-.4 3.5-1l-1-1.9a4 4 0 0 1-2.1.7c-1.3 0-2.3-.7-2.6-2.2h6v-1.2c0-2.7-1.3-4.8-4.1-4.8-2.4 0-4.7 2-4.7 5.2zm2.8-1c.2-1.3 1-2 2-2 1.1 0 1.6.9 1.6 2h-3.6z" fill="#fff"/><path fill-rule="evenodd" clip-rule="evenodd" d="M386 141h-55v78h55v-78zm-22 5.6h-11V180h11v-33.4z" fill="#fff"/></g></defs><g transform="translate(20 20)"><rect width="900" height="360" rx="15" fill="#F4F5F6"/><g fill="#333"><g opacity="0"><g transform="translate(450 180)"><use href="#a"><animateTransform attributeName="transform" type="scale" values="1;1;1.03;1.11;1.26;1.5;1.74;1.89;1.97;2;2" begin="b.begin+.125s" dur=".5s" fill="freeze"/></use></g><animate id="c" attributeName="opacity" values="0;0;0.03;0.11;0.26;0.5;0.74;0.89;0.97;1;1" begin=".25s" dur=".5s" fill="freeze"/><animateTransform id="d" attributeName="transform" type="translate" values="0 0;0 -0.23;0 -1.82;0 -6.16;0 -14.59;0 -28.5;0 -42.41;0 -50.84;0 -55.18;0 -56.77;0 -57" begin="c.end+.25s" dur=".5s" fill="freeze"/><animate attributeName="opacity" values="1;1;0.98;0.95;0.87;0.75;0.63;0.55;0.52;0.5;0.5" begin="d.begin" dur=".5s" fill="freeze"/><animateTransform id="b" attributeName="transform" type="translate" values="0 -57;-1.42 -57.14;-11.36 -58.15;-38.34 -60.89;-90.88 -66.22;-177.5 -75;-264.12 -83.78;-316.66 -89.11;-343.64 -91.85;-353.58 -92.86;-355 -93" begin="d.end+.5s" dur=".75s" fill="freeze"/></g><g opacity="0"><use href="#e" transform="translate(450 180)"/><animateTransform id="f" attributeName="transform" type="translate" values="0 57;0 56.77;0 55.18;0 50.84;0 42.41;0 28.5;0 14.59;0 6.16;0 1.82;0 0.23;0 0" begin="c.end+.25s" dur=".5s" fill="freeze"/><animate attributeName="opacity" values="0;0;0.03;0.11;0.26;0.5;0.74;0.89;0.97;1;1" begin="f.begin" dur=".5s" fill="freeze"/><animateTransform attributeName="transform" type="translate" values="0 0;-1.4 -0.03;-11.17 -0.21;-37.69 -0.7;-89.34 -1.66;-174.5 -3.25;-259.66 -4.84;-311.31 -5.8;-337.83 -6.29;-347.6 -6.47;-349 -6.5" begin="b.begin" dur=".75s" fill="freeze"/></g></g></g><clipPath id="g"><circle r="0"><animate attributeName="r" values="0;4.06;32.49;109.66;259.94;507.7;755.46;905.74;982.91;1011.34;1015.41" begin="b.begin" dur=".75s" fill="freeze"/></circle></clipPath><g transform="translate(940 718)" clip-path="url(#g)"><g transform="translate(-940 -718) translate(222)"><use href="#h"/><circle transform="translate(-1000 -1000)" r="100" fill="#fff" fill-opacity=".1"><animateTransform attributeName="transform" type="translate" values="-100 -100;-8.2 -40;83.6 20;175.4 80;267.2 140;359 200;450.8 260;542.6 320;634.4 380;726.2 440;818 500" begin="-1024s" dur="32s" fill="freeze" repeatCount="indefinite"/></circle><circle transform="translate(-1000 -1000)" r="80" fill="#fff" fill-opacity=".1"><animateTransform attributeName="transform" type="translate" values="400 -80;382 -24;364 32;346 88;328 144;310 200;292 256;274 312;256 368;238 424;220 480" begin="-1024s" dur="25s" fill="freeze" repeatCount="indefinite"/></circle><circle transform="translate(-1000 -1000)" r="120" fill="#fff" fill-opacity=".1"><animateTransform attributeName="transform" type="translate" values="838 520;778.13 456;718.27 392;658.4 328;598.53 264;538.67 200;478.8 136;418.93 72;359.07 8;299.2 -56;239.33 -120" begin="-1024s" dur="28s" fill="freeze" repeatCount="indefinite"/></circle></g></g></svg>
