<svg width="900" height="360" viewBox="0 0 1000 368" fill="none" xmlns="http://www.w3.org/2000/svg"><defs><path id="a" transform="translate(-30 -28.5)" d="M1 39V.6H4v17.7h6.2V.6h3.1V39h-3.1V21.1H4V39H1zm26.5-9.9h3a53.1 53.1 0 0 1 .1 4.4c0 2-.6 3.6-1.5 4.5-.8.9-2.3 1.3-4.4 1.3-2.2 0-3.8-.4-4.7-1.3-1-1-1.5-2.4-1.6-4.5l-.1-5.7v-6.3l.1-5.7c.1-2.1.7-3.6 1.6-4.5 1-1 2.5-1.4 4.6-1.4 2 0 3.6.4 4.5 1.3 1 .9 1.4 2.4 1.5 4.5a99.2 99.2 0 0 1 0 9.6h-9v8.5c0 1.1.3 2 .7 2.4.5.4 1.2.6 2.3.6 1 0 1.7-.2 2.1-.6.5-.5.7-1.3.8-2.4V29zm-2.9-16.7c-1 0-1.8.2-2.3.7-.4.5-.7 1.2-.7 2.3v7.4h6v-4.5l-.1-3c0-1-.3-1.7-.8-2.2-.4-.5-1.1-.7-2-.7zM37.4 39l-4-28.8h3.3l1.5 14 1.3 12.3h.9l1.3-12.2 1.5-14.1h3.3l-4.3 32.7c-.3 2-1 3.6-1.8 4.5-1 .9-2.5 1.3-4.6 1.3-1 0-2 0-2.9-.2V46l1.3.1h1.5c1.2 0 2-.2 2.4-.6.4-.4.7-1.2.9-2.4l.5-4.1h-2.1zm14.1-7.6-.5-21V.6h3.4v9.8l-.5 21h-2.4zM50 39v-4.3h5.4V39H50z"/><path id="d" transform="translate(-66 -28.5)" d="M.6 39V.6h3.2V39H.6zM8.5 5V.5h5.4v4l-2.3 5.3h-2l1.8-5H8.5zm8.6 34V10.2h3.2v2.5h.6c.5-1 1-1.6 1.6-2.1.7-.5 1.5-.7 2.7-.7 1.1 0 2 .2 2.7.7a4 4 0 0 1 1.5 2.3h.6c.5-1 1-1.7 1.8-2.2.7-.6 1.6-.8 2.7-.8 1.5 0 2.6.4 3.4 1.3.7.9 1 2.3 1.1 4.4V39h-3l-.1-23.7c0-1-.3-1.8-.7-2.2-.3-.5-1-.7-1.8-.7-1.8 0-3 1-3.7 3V39h-3.2V15.3c0-1-.2-1.8-.6-2.2-.4-.5-1-.7-1.8-.7-2 0-3.2 1-3.8 2.9V39H17zm37.1 0V.6h3.2V39h-3.2zm13 .3c-1.5 0-2.7-.4-3.5-1.3-.8-.9-1.1-2.3-1.1-4.4V10.2h3.2v23.7c0 1 .2 1.8.6 2.3.3.4 1 .6 1.8.6.9 0 1.6-.2 2.3-.7.7-.5 1.2-1.3 1.5-2.2V10.2h3.2V39H72v-2.5h-.6c-1 1.9-2.3 2.8-4.2 2.8zM79.4 4.4V.6h5v3.8h-5zm-4.8 44.2V46H76l1.4.1c1 0 1.8-.2 2.3-.7.4-.4.6-1.2.6-2.3v-33h3.2V43c0 2-.5 3.6-1.4 4.4-1 1-2.5 1.4-4.6 1.4-1 0-2 0-2.9-.2zM87.7 4.4V.6h5v3.8h-5zM83 48.6V46h1.3l1.5.1c1 0 1.8-.2 2.2-.7.4-.4.7-1.2.7-2.3v-33h3.1V43c0 2-.4 3.6-1.4 4.4-1 1-2.4 1.4-4.6 1.4-1 0-2 0-2.8-.2zM96 4.4V.6h5v3.8h-5zm-4.7 44.2V46h1.3l1.5.1c1 0 1.8-.2 2.2-.7.5-.4.7-1.2.7-2.3v-33h3.2V43c0 2-.5 3.6-1.5 4.4-.9 1-2.4 1.4-4.5 1.4-1 0-2 0-2.9-.2zm14-9.6V.6h3.2v12.1h.7c.4-1 1-1.6 1.6-2.1.6-.5 1.5-.7 2.6-.7 1.5 0 2.6.4 3.4 1.3.8.9 1.1 2.3 1.1 4.4V39h-3.1V15.3c0-1-.3-1.8-.7-2.2-.3-.5-1-.7-1.8-.7-2 0-3.2 1-3.8 2.9V39h-3.2zm17 0v-4.3h5.4V39h-5.4z"/></defs><rect width="100%" height="100%" rx="15" fill="#F4F5F6"/><g fill="#333"><use href="#a" x="50%" y="50%" opacity="0"><animate id="b" attributeName="opacity" values="0;0.27;0.49;0.66;0.78;0.88;0.94;0.97;0.99;1" begin=".25s" dur=".5s" fill="freeze"/><animateTransform id="c" attributeName="transform" type="translate" values="0 0;0 -15.45;0 -27.82;0 -37.45;0 -44.69;0 -49.88;0 -53.35;0 -55.46;0 -56.54;0 -56.94" begin="b.end+.125s" dur=".5s" fill="freeze" additive="sum"/><animate attributeName="opacity" values="1;0.86;0.76;0.67;0.61;0.56;0.53;0.51;0.5;0.5" begin="c.begin" dur=".5s" fill="freeze"/></use><use href="#d" x="50%" y="50%" opacity="0"><animateTransform id="e" attributeName="transform" type="translate" values="0 57;0 41.55;0 29.18;0 19.55;0 12.31;0 7.13;0 3.65;0 1.54;0 0.46;0 0.06" begin="b.end+.125s" dur=".5s" fill="freeze"/><animate attributeName="opacity" values="0;0.27;0.49;0.66;0.78;0.88;0.94;0.97;0.99;1" begin="e.begin" dur=".5s" fill="freeze"/></use></g></svg>
