<svg width="940" height="400" fill="none" xmlns="http://www.w3.org/2000/svg"><defs><path id="a" transform="translate(-30 -28.5)" d="M1 39V.6H4v17.7h6.2V.6h3.1V39h-3.1V21.1H4V39H1zm26.5-9.9h3a53.1 53.1 0 0 1 .1 4.4c0 2-.6 3.6-1.5 4.5-.8.9-2.3 1.3-4.4 1.3-2.2 0-3.8-.4-4.7-1.3-1-1-1.5-2.4-1.6-4.5l-.1-5.7v-6.3l.1-5.7c.1-2.1.7-3.6 1.6-4.5 1-1 2.5-1.4 4.6-1.4 2 0 3.6.4 4.5 1.3 1 .9 1.4 2.4 1.5 4.5a99.2 99.2 0 0 1 0 9.6h-9v8.5c0 1.1.3 2 .7 2.4.5.4 1.2.6 2.3.6 1 0 1.7-.2 2.1-.6.5-.5.7-1.3.8-2.4V29zm-2.9-16.7c-1 0-1.8.2-2.3.7-.4.5-.7 1.2-.7 2.3v7.4h6v-4.5l-.1-3c0-1-.3-1.7-.8-2.2-.4-.5-1.1-.7-2-.7zM37.4 39l-4-28.8h3.3l1.5 14 1.3 12.3h.9l1.3-12.2 1.5-14.1h3.3l-4.3 32.7c-.3 2-1 3.6-1.8 4.5-1 .9-2.5 1.3-4.6 1.3-1 0-2 0-2.9-.2V46l1.3.1h1.5c1.2 0 2-.2 2.4-.6.4-.4.7-1.2.9-2.4l.5-4.1h-2.1zm14.1-7.6-.5-21V.6h3.4v9.8l-.5 21h-2.4zM50 39v-4.3h5.4V39H50z"/><path id="d" transform="translate(-66 -28.5)" d="M.6 39V.6h3.2V39H.6zM8.5 5V.5h5.4v4l-2.3 5.3h-2l1.8-5H8.5zm8.6 34V10.2h3.2v2.5h.6c.5-1 1-1.6 1.6-2.1.7-.5 1.5-.7 2.7-.7 1.1 0 2 .2 2.7.7a4 4 0 0 1 1.5 2.3h.6c.5-1 1-1.7 1.8-2.2.7-.6 1.6-.8 2.7-.8 1.5 0 2.6.4 3.4 1.3.7.9 1 2.3 1.1 4.4V39h-3l-.1-23.7c0-1-.3-1.8-.7-2.2-.3-.5-1-.7-1.8-.7-1.8 0-3 1-3.7 3V39h-3.2V15.3c0-1-.2-1.8-.6-2.2-.4-.5-1-.7-1.8-.7-2 0-3.2 1-3.8 2.9V39H17zm37.1 0V.6h3.2V39h-3.2zm13 .3c-1.5 0-2.7-.4-3.5-1.3-.8-.9-1.1-2.3-1.1-4.4V10.2h3.2v23.7c0 1 .2 1.8.6 2.3.3.4 1 .6 1.8.6.9 0 1.6-.2 2.3-.7.7-.5 1.2-1.3 1.5-2.2V10.2h3.2V39H72v-2.5h-.6c-1 1.9-2.3 2.8-4.2 2.8zM79.4 4.4V.6h5v3.8h-5zm-4.8 44.2V46H76l1.4.1c1 0 1.8-.2 2.3-.7.4-.4.6-1.2.6-2.3v-33h3.2V43c0 2-.5 3.6-1.4 4.4-1 1-2.5 1.4-4.6 1.4-1 0-2 0-2.9-.2zM87.7 4.4V.6h5v3.8h-5zM83 48.6V46h1.3l1.5.1c1 0 1.8-.2 2.2-.7.4-.4.7-1.2.7-2.3v-33h3.1V43c0 2-.4 3.6-1.4 4.4-1 1-2.4 1.4-4.6 1.4-1 0-2 0-2.8-.2zM96 4.4V.6h5v3.8h-5zm-4.7 44.2V46h1.3l1.5.1c1 0 1.8-.2 2.2-.7.5-.4.7-1.2.7-2.3v-33h3.2V43c0 2-.5 3.6-1.5 4.4-.9 1-2.4 1.4-4.5 1.4-1 0-2 0-2.9-.2zm14-9.6V.6h3.2v12.1h.7c.4-1 1-1.6 1.6-2.1.6-.5 1.5-.7 2.6-.7 1.5 0 2.6.4 3.4 1.3.8.9 1.1 2.3 1.1 4.4V39h-3.1V15.3c0-1-.3-1.8-.7-2.2-.3-.5-1-.7-1.8-.7-2 0-3.2 1-3.8 2.9V39h-3.2zm17 0v-4.3h5.4V39h-5.4z"/><g id="h"><rect width="718" height="400" rx="15" fill="#0073C6"/><path d="M48.8 55h1.7V41.9h-1.7V55zm5.2-8.6c1.4-.8 2.1-2 2.1-3.6 0-1.1-.5-1.8-1.2-1.8s-1.1.4-1.1 1.1c0 .7.5 1 1 1h.2c0 1.2-.5 1.9-1.5 2.5l.5.8zm4.9 8.6h1.6v-7c1-1 1.7-1.5 2.5-1.5 1.2 0 1.8.7 1.8 2.6V55h1.6v-7c1-1 1.7-1.5 2.5-1.5 1.2 0 1.8.7 1.8 2.6V55h1.6v-6.2c0-2.4-1-3.8-3-3.8-1.1 0-2.1.8-3.2 1.9-.4-1.2-1.2-1.9-2.6-1.9-1.2 0-2.2.8-3 1.7h-.1l-.2-1.4H59V55zm19.9-4.8c0 3.2 2 5 4.5 5 1.2 0 2.3-.4 3.2-1.2l-.7-1.1c-.6.5-1.4 1-2.3 1-1.8 0-3-1.5-3-3.7 0-2.3 1.3-3.8 3-3.8.8 0 1.4.4 2 .9l.8-1.1a4 4 0 0 0-2.8-1.2c-2.5 0-4.7 1.9-4.7 5.2zm9.7 1.2c0 2.5.9 3.8 3 3.8 1.3 0 2.3-.7 3.2-1.7L95 55h1.3v-9.7h-1.6v6.9c-1 1.1-1.6 1.6-2.6 1.6-1.3 0-1.9-.8-1.9-2.6v-6h-1.6v6.2zm11 3.6h1.6v-6.2c.7-1.7 1.7-2.3 2.5-2.3.4 0 .6 0 1 .2l.3-1.5-1-.2c-1.2 0-2.2.8-2.8 2h-.1l-.1-1.7h-1.4V55zm7 0h1.6v-6.2c.6-1.7 1.6-2.3 2.4-2.3.4 0 .7 0 1 .2l.3-1.5-1-.2c-1.1 0-2.1.8-2.8 2l-.2-1.7h-1.4V55zm6-4.8c0 3.1 2 5 4.6 5 1.3 0 2.4-.4 3.2-1l-.6-1c-.7.4-1.5.7-2.4.7-1.8 0-3.1-1.3-3.2-3.4h6.5v-.9c0-2.8-1.3-4.6-3.8-4.6-2.2 0-4.3 2-4.3 5.2zm1.6-.8c.2-2 1.4-3 2.8-3 1.5 0 2.4 1 2.4 3H114zm9 5.6h1.6v-7c1-1 1.7-1.5 2.7-1.5 1.3 0 1.8.7 1.8 2.6V55h1.7v-6.2c0-2.4-1-3.8-3-3.8-1.3 0-2.3.8-3.2 1.7h-.1l-.1-1.4H123V55zm11.2-3c0 2 .7 3.2 2.8 3.2a6 6 0 0 0 1.8-.3l-.3-1.3c-.3.2-.8.3-1.1.3-1.1 0-1.5-.7-1.5-1.9v-5.4h2.6v-1.3H136v-2.7h-1.4l-.2 2.7h-1.5v1.3h1.4V52zm6.5 1c0 1.5.5 2.2 1.7 2.2l1-.1-.3-1.3h-.3c-.3 0-.5-.1-.5-.6V40.8h-1.6V53zm4.4 4.7L145 59l1.1.2c2 0 3-1.5 3.7-3.4l3.6-10.5h-1.6l-1.7 5.4-.8 2.7-1-2.7-2-5.4h-1.7l3.9 9.7-.2.7c-.4 1.2-1.1 2.1-2.2 2.1l-.8-.1zm15.6-2.7h2l1.3-5.2.7-2.8.7 2.8L167 55h2l2.6-9.7H170l-1.4 5.6-.6 2.7-.7-2.7-1.6-5.6H164l-1.5 5.6-.6 2.7-.7-2.7-1.4-5.6H158l2.7 9.7zm12-4.8c0 3.2 2.1 5 4.5 5s4.5-1.8 4.5-5c0-3.3-2.1-5.2-4.5-5.2s-4.5 1.9-4.5 5.2zm1.7 0c0-2.3 1.2-3.8 2.8-3.8 1.7 0 2.8 1.5 2.8 3.8 0 2.2-1.1 3.7-2.8 3.7-1.6 0-2.8-1.5-2.8-3.7zm9.9 4.8h1.6v-6.2c.7-1.7 1.7-2.3 2.5-2.3.4 0 .6 0 1 .2l.2-1.5-1-.2c-1.1 0-2.1.8-2.8 2l-.2-1.7h-1.3V55zm7 0h1.5v-2.6l1.9-2 2.8 4.6h1.8l-3.7-5.8 3.3-4H197l-4.1 5.2v-9.6h-1.7V55zM202 43.3c.6 0 1.1-.5 1.1-1 0-.7-.5-1.1-1.1-1.1-.7 0-1.2.4-1.2 1s.5 1 1.2 1zm-.9 11.7h1.7v-9.7h-1.7V55zm5 0h1.6v-7c1-1 1.6-1.5 2.6-1.5 1.3 0 1.9.7 1.9 2.6V55h1.6v-6.2c0-2.4-.9-3.8-3-3.8-1.3 0-2.3.8-3.2 1.7l-.2-1.4h-1.4V55zm11.6 1.6c0-.5.3-1.1 1-1.6l1.2.2h1.7c1.3 0 2 .3 2 1.2 0 1-1.2 2-3.1 2-1.8 0-2.8-.7-2.8-1.8zm-1.5.3c0 1.6 1.7 2.6 4 2.6 3 0 5-1.6 5-3.4 0-1.6-1.2-2.3-3.4-2.3H220c-1.3 0-1.7-.4-1.7-1s.3-1 .6-1.2c.4.2 1 .3 1.5.3 2 0 3.5-1.3 3.5-3.4 0-.8-.3-1.5-.8-2h2v-1.2h-3.4c-.3-.2-.8-.3-1.3-.3-2 0-3.7 1.4-3.7 3.5 0 1.2.6 2.1 1.3 2.6v.1c-.5.3-1.1 1-1.1 1.8s.4 1.3.9 1.6c-1 .7-1.5 1.4-1.5 2.3zm4-6c-1 0-2-1-2-2.4s1-2.3 2-2.3c1.2 0 2.1.9 2.1 2.3s-1 2.3-2 2.3zm10.2-.7c0 3.2 2.1 5 4.5 5s4.5-1.8 4.5-5c0-3.3-2.1-5.2-4.5-5.2s-4.5 1.9-4.5 5.2zm1.7 0c0-2.3 1.1-3.8 2.8-3.8 1.7 0 2.8 1.5 2.8 3.8 0 2.2-1.1 3.7-2.8 3.7-1.7 0-2.8-1.5-2.8-3.7zM242 55h1.7v-7c1-1 1.6-1.5 2.6-1.5 1.3 0 1.9.7 1.9 2.6V55h1.6v-6.2c0-2.4-.9-3.8-3-3.8-1.3 0-2.3.8-3.2 1.7l-.2-1.4H242V55zm10.6-8.2a1.2 1.2 0 1 0 2.4 0c0-.8-.5-1.3-1.2-1.3-.6 0-1.2.5-1.2 1.3zm0 7.2c0 .7.6 1.2 1.2 1.2.7 0 1.2-.5 1.2-1.2 0-.8-.5-1.3-1.2-1.3-.6 0-1.2.5-1.2 1.3zM303 254h8.1v-2.5H306V241h-3v13zm11.6-11.4c1 0 1.7-.6 1.7-1.5 0-1-.7-1.5-1.7-1.5s-1.7.6-1.7 1.5.7 1.5 1.7 1.5zm-1.5 11.4h3v-10h-3v10zm5.6 0h3v-6.7c.5-.6 1-1 1.7-1 .9 0 1.3.5 1.3 2v5.7h3v-6.2c0-2.4-1-4-3.2-4-1.3 0-2.3.7-3.2 1.5l-.2-1.2h-2.4v9.9zm10.8-5c0 3.3 2.2 5.2 5 5.2 1.2 0 2.6-.4 3.6-1l-1-1.9a4 4 0 0 1-2.1.7c-1.4 0-2.4-.7-2.6-2.2h6v-1.2c0-2.7-1.4-4.8-4.2-4.8-2.4 0-4.7 2-4.7 5.2zm2.9-1c.2-1.3 1-2 1.9-2 1.2 0 1.6.9 1.6 2h-3.5zm7.5 3.2c0 1.7 1.1 3 3 3 1 0 2-.5 2.8-1.2l.3 1h2.4v-5.7c0-3-1.4-4.5-4-4.5-1.5 0-3 .6-4.2 1.3l1 2c1-.6 1.9-1 2.7-1 1 0 1.5.6 1.6 1.5-4 .4-5.6 1.6-5.6 3.6zm2.8-.2c0-.7.7-1.3 2.8-1.6v1.7c-.6.5-1 .9-1.7.9s-1.1-.3-1.1-1zm8.2 3h3v-5.8c.5-1.3 1.4-1.8 2.2-1.8.4 0 .7 0 1 .2l.5-2.6-1.2-.2c-1 0-2 .7-2.8 2l-.3-1.7H351v9.9zm8.2 0h2.7v-4.8l-.3-4.4 1.1 3 2 5h1.2l2-5 1-3h.1l-.3 4.4v4.8h2.7v-13h-3.1l-2.1 5.8-.8 2.3-.9-2.3-2.1-5.8H359v13zm14.5-5c0 3.3 2.3 5.2 4.8 5.2s4.8-1.9 4.8-5.2c0-3.3-2.3-5.2-4.8-5.2s-4.8 2-4.8 5.2zm3 0c0-1.7.6-2.8 1.8-2.8 1.2 0 1.8 1.1 1.8 2.8 0 1.8-.6 2.9-1.8 2.9-1.2 0-1.8-1.1-1.8-2.9zm8.5 1.2c0 2.5 1 4 3.1 4 1.4 0 2.3-.6 3.1-1.6l.3 1.4h2.4v-10h-3v6.6c-.5.8-1 1.1-1.7 1.1-.9 0-1.2-.4-1.2-1.8V244h-3v6.1zm10.6 2.7c1 .8 2.5 1.3 3.8 1.3 2.7 0 4.1-1.4 4.1-3.2 0-1.8-1.4-2.5-2.7-3-1-.3-2-.6-2-1.2 0-.5.4-.8 1.2-.8.7 0 1.4.3 2 .9l1.4-1.8c-.8-.6-2-1.3-3.5-1.3-2.3 0-3.8 1.3-3.8 3.1 0 1.7 1.4 2.5 2.6 3 1 .4 2 .7 2 1.3 0 .5-.3.9-1.2.9-.8 0-1.7-.4-2.6-1l-1.3 1.8zm9.2-3.9c0 3.3 2.2 5.2 5 5.2 1.2 0 2.5-.4 3.5-1l-1-1.9a4 4 0 0 1-2.1.7c-1.3 0-2.3-.7-2.6-2.2h6v-1.2c0-2.7-1.3-4.8-4.1-4.8-2.4 0-4.7 2-4.7 5.2zm2.8-1c.2-1.3 1-2 2-2 1.1 0 1.6.9 1.6 2h-3.6z" fill="#fff"/><path fill-rule="evenodd" clip-rule="evenodd" d="M386 141h-55v78h55v-78zm-22 5.6h-11V180h11v-33.4z" fill="#fff"/></g></defs><g transform="translate(20 20)"><rect width="900" height="360" rx="15" fill="#F4F5F6"/><g fill="#333"><g opacity="0"><g transform="translate(450 180)"><use href="#a"><animateTransform attributeName="transform" type="scale" values="1;1.27;1.49;1.66;1.78;1.88;1.94;1.97;1.99;2" begin="b.end+.25s" dur=".5s" fill="freeze"/></use></g><animate id="c" attributeName="opacity" values="0;0.27;0.49;0.66;0.78;0.88;0.94;0.97;0.99;1" begin=".25s" dur=".5s" fill="freeze"/><animateTransform id="b" attributeName="transform" type="translate" values="0 0;0 -15.45;0 -27.82;0 -37.45;0 -44.69;0 -49.88;0 -53.35;0 -55.46;0 -56.54;0 -56.94" begin="c.end+.25s" dur=".5s" fill="freeze"/><animate attributeName="opacity" values="1;0.86;0.76;0.67;0.61;0.56;0.53;0.51;0.5;0.5" begin="b.begin" dur=".5s" fill="freeze"/><animateTransform id="f" attributeName="transform" type="translate" values="0 -57;-96.2 -66.76;-173.24 -74.57;-233.24 -80.65;-278.32 -85.22;-310.63 -88.5;-332.28 -90.7;-345.41 -92.03;-352.16 -92.71;-354.64 -92.96" begin="b.end+.25s" dur=".5s" fill="freeze"/></g><g opacity="0"><use href="#d" transform="translate(450 180)"/><animateTransform id="e" attributeName="transform" type="translate" values="0 57;0 41.55;0 29.18;0 19.55;0 12.31;0 7.13;0 3.65;0 1.54;0 0.46;0 0.06" begin="c.end+.25s" dur=".5s" fill="freeze"/><animate attributeName="opacity" values="0;0.27;0.49;0.66;0.78;0.88;0.94;0.97;0.99;1" begin="e.begin" dur=".5s" fill="freeze"/><animateTransform attributeName="transform" type="translate" values="0 0;-94.58 -1.76;-170.31 -3.17;-229.29 -4.27;-273.62 -5.1;-305.38 -5.69;-326.66 -6.08;-339.58 -6.32;-346.21 -6.45;-348.65 -6.49" begin="f.begin" dur=".5s" fill="freeze"/></g></g></g><clipPath id="g"><circle r="0"><animate attributeName="r" values="0;447.15;805.2;1084.05;1293.6;1443.75;1544.4;1605.45;1636.8;1648.35" begin="f.end+.25s" dur="3s" fill="freeze"/></circle></clipPath><use clip-path="url(#g)" href="#h" transform="translate(222)"/></svg>
